<?xml version="1.0" encoding="utf-8"?>
<!-- Generator: Adobe Illustrator 17.1.0, SVG Export Plug-In . SVG Version: 6.00 Build 0)  -->
<!DOCTYPE svg PUBLIC "-//W3C//DTD SVG 1.1//EN" "http://www.w3.org/Graphics/SVG/1.1/DTD/svg11.dtd">
<svg version="1.1" id="Layer_1" xmlns="http://www.w3.org/2000/svg" xmlns:xlink="http://www.w3.org/1999/xlink" x="0px" y="0px"
	 viewBox="0.1 175.7 60 40" enable-background="new 0.1 175.7 60 40" xml:space="preserve">
<g>
	<path fill="#FFF9F0" d="M60.1,210.7c0,2.8-2.2,5-5,5h-50c-2.8,0-5-2.2-5-5v-30c0-2.8,2.2-5,5-5h50c2.8,0,5,2.2,5,5V210.7z"/>
	<g>
		<path fill="#414042" d="M15.2,195.7c0,1-0.3,1.8-0.9,2.3c-0.6,0.5-1.4,0.8-2.5,0.8h-1.7v-6.1h1.9c1,0,1.8,0.3,2.3,0.8
			C15,194,15.2,194.7,15.2,195.7z M13.9,195.7c0-1.3-0.6-2-1.7-2h-0.7v4H12C13.3,197.7,13.9,197,13.9,195.7z"/>
		<path fill="#414042" d="M16.3,198.8v-6.1h1.3v6.1H16.3z"/>
		<path fill="#414042" d="M22.8,197.1c0,0.6-0.2,1-0.6,1.3c-0.4,0.3-0.9,0.5-1.6,0.5c-0.6,0-1.2-0.1-1.7-0.4v-1.2
			c0.4,0.2,0.8,0.3,1,0.4c0.3,0.1,0.5,0.1,0.8,0.1c0.3,0,0.5-0.1,0.7-0.2c0.1-0.1,0.2-0.3,0.2-0.5c0-0.1,0-0.2-0.1-0.3
			c-0.1-0.1-0.2-0.2-0.3-0.3c-0.1-0.1-0.4-0.2-0.8-0.4c-0.4-0.2-0.6-0.3-0.8-0.5c-0.2-0.2-0.3-0.3-0.4-0.6s-0.2-0.5-0.2-0.8
			c0-0.5,0.2-1,0.5-1.3c0.4-0.3,0.9-0.5,1.5-0.5c0.3,0,0.6,0,0.9,0.1c0.3,0.1,0.6,0.2,0.9,0.3l-0.4,1c-0.3-0.1-0.6-0.2-0.8-0.3
			c-0.2-0.1-0.4-0.1-0.6-0.1c-0.2,0-0.4,0.1-0.6,0.2c-0.1,0.1-0.2,0.3-0.2,0.4c0,0.1,0,0.2,0.1,0.3c0.1,0.1,0.1,0.2,0.3,0.2
			s0.4,0.2,0.8,0.4c0.6,0.3,1,0.5,1.2,0.8C22.6,196.3,22.8,196.7,22.8,197.1z"/>
		<path fill="#414042" d="M26.4,193.7c-0.5,0-0.9,0.2-1.1,0.5c-0.3,0.4-0.4,0.9-0.4,1.5c0,1.4,0.5,2,1.5,2c0.4,0,0.9-0.1,1.6-0.3
			v1.1c-0.5,0.2-1.1,0.3-1.7,0.3c-0.9,0-1.6-0.3-2-0.8c-0.5-0.5-0.7-1.3-0.7-2.3c0-0.6,0.1-1.2,0.3-1.7c0.2-0.5,0.6-0.8,1-1.1
			c0.4-0.3,0.9-0.4,1.5-0.4c0.6,0,1.2,0.1,1.8,0.4l-0.4,1c-0.2-0.1-0.5-0.2-0.7-0.3C26.9,193.7,26.7,193.7,26.4,193.7z"/>
		<path fill="#414042" d="M38.3,192.7h1.3l-2.1,6.1h-1.4l-2.1-6.1h1.3l1.1,3.6c0.1,0.2,0.1,0.5,0.2,0.7c0.1,0.3,0.1,0.5,0.1,0.6
			c0-0.3,0.1-0.7,0.3-1.3L38.3,192.7z"/>
		<path fill="#414042" d="M43.9,198.8h-3.5v-6.1h3.5v1.1h-2.2v1.3h2.1v1.1h-2.1v1.6h2.2V198.8z"/>
		<path fill="#414042" d="M46.5,196.4v2.3h-1.3v-6.1h1.8c0.8,0,1.4,0.1,1.8,0.5c0.4,0.3,0.6,0.8,0.6,1.4c0,0.4-0.1,0.7-0.3,1
			c-0.2,0.3-0.5,0.5-0.8,0.7c0.9,1.4,1.5,2.3,1.8,2.6h-1.4l-1.5-2.3L46.5,196.4L46.5,196.4z M46.5,195.4h0.4c0.4,0,0.7-0.1,0.9-0.2
			c0.2-0.1,0.3-0.4,0.3-0.6c0-0.3-0.1-0.5-0.3-0.6s-0.5-0.2-0.9-0.2h-0.4L46.5,195.4L46.5,195.4z"/>
		<circle fill="#E6A124" cx="31.2" cy="195.7" r="3"/>
	</g>
	<path fill="#E6A124" d="M60.1,203.2v7.5c0,0.7-0.1,1.3-0.4,1.9c-0.3,0.6-0.6,1.1-1.1,1.6s-1,0.8-1.6,1.1c-0.6,0.3-1.3,0.4-1.9,0.4
		H32.7H10.2L60.1,203.2z"/>
	<path opacity="8.000000e-02" fill="#FFFFFF" enable-background="new    " d="M58.6,177.2c0.9,0.9,1.5,2.2,1.5,3.5v15v15
		c0,1.4-0.6,2.6-1.5,3.5c-0.9,0.9-2.2,1.5-3.5,1.5h-25h-25c-1.4,0-2.6-0.6-3.5-1.5L58.6,177.2z"/>
	<g>
		<path fill="#F7F5F2" d="M55.1,176.7c2.2,0,4,1.8,4,4v30c0,2.2-1.8,4-4,4h-50c-2.2,0-4-1.8-4-4v-30c0-2.2,1.8-4,4-4H55.1
			 M55.1,175.7h-50c-2.8,0-5,2.2-5,5v30c0,2.8,2.2,5,5,5h50c2.8,0,5-2.2,5-5v-30C60.1,178,57.9,175.7,55.1,175.7L55.1,175.7z"/>
	</g>
</g>
</svg>
