<?xml version="1.0" encoding="utf-8"?>
<!-- Generator: Adobe Illustrator 17.1.0, SVG Export Plug-In . SVG Version: 6.00 Build 0)  -->
<!DOCTYPE svg PUBLIC "-//W3C//DTD SVG 1.1//EN" "http://www.w3.org/Graphics/SVG/1.1/DTD/svg11.dtd">
<svg version="1.1" id="Layer_1" xmlns="http://www.w3.org/2000/svg" xmlns:xlink="http://www.w3.org/1999/xlink" x="0px" y="0px"
	 viewBox="0.1 131.8 60 40" enable-background="new 0.1 131.8 60 40" xml:space="preserve">
<g>
	<g>
		<path fill="#5EC1EC" d="M60.1,166.8c0,2.8-2.2,5-5,5h-50c-2.8,0-5-2.2-5-5v-30c0-2.8,2.2-5,5-5h50c2.8,0,5,2.2,5,5V166.8z"/>
		<path fill="#5BBBE6" d="M58.6,133.3c0.9,0.9,1.5,2.2,1.5,3.5v15v15c0,1.4-0.6,2.6-1.5,3.5c-0.9,0.9-2.2,1.5-3.5,1.5h-25h-25
			c-1.4,0-2.6-0.6-3.5-1.5L58.6,133.3z"/>
		<g>
			<path fill="#FFFFFF" d="M17.7,156.7l-0.5-1.7h-3l-0.5,1.7H11l3-9.3h3.3l3.1,9.3H17.7z M16.7,152.9l-0.4-1.5
				c-0.1-0.3-0.2-0.8-0.3-1.3c-0.1-0.5-0.2-0.9-0.3-1.2c0,0.2-0.1,0.6-0.2,1.1s-0.4,1.5-0.7,2.9L16.7,152.9L16.7,152.9z"/>
			<path fill="#FFFFFF" d="M25.5,156.7l-1.9-6.7h-0.1c0.1,1.1,0.1,2,0.1,2.7v4h-2.2v-9.3h3.3l1.9,6.6h0.1l1.9-6.6H32v9.3h-2.3v-4.1
				c0-0.2,0-0.4,0-0.7s0-0.9,0.1-1.9h-0.1l-1.9,6.7L25.5,156.7L25.5,156.7z"/>
			<path fill="#FFFFFF" d="M39.2,156.7h-5.5v-9.3h5.5v2h-3v1.5H39v2h-2.8v1.8h3V156.7z"/>
			<path fill="#FFFFFF" d="M49.2,156.7h-2.9l-1.8-2.9l-1.8,2.9h-2.8L43,152l-2.9-4.5h2.8l1.7,2.9l1.6-2.9H49l-2.9,4.7L49.2,156.7z"
				/>
		</g>
		<g>
			<path fill="#FFFFFF" d="M17.7,156.7l-0.5-1.7h-3l-0.5,1.7H11l3-9.3h3.3l3.1,9.3H17.7z M16.7,152.9l-0.4-1.5
				c-0.1-0.3-0.2-0.8-0.3-1.3c-0.1-0.5-0.2-0.9-0.3-1.2c0,0.2-0.1,0.6-0.2,1.1s-0.4,1.5-0.7,2.9L16.7,152.9L16.7,152.9z"/>
			<path fill="#FFFFFF" d="M25.5,156.7l-1.9-6.7h-0.1c0.1,1.1,0.1,2,0.1,2.7v4h-2.2v-9.3h3.3l1.9,6.6h0.1l1.9-6.6H32v9.3h-2.3v-4.1
				c0-0.2,0-0.4,0-0.7s0-0.9,0.1-1.9h-0.1l-1.9,6.7L25.5,156.7L25.5,156.7z"/>
			<path fill="#FFFFFF" d="M39.2,156.7h-5.5v-9.3h5.5v2h-3v1.5H39v2h-2.8v1.8h3V156.7z"/>
			<path fill="#FFFFFF" d="M49.2,156.7h-2.9l-1.8-2.9l-1.8,2.9h-2.8L43,152l-2.9-4.5h2.8l1.7,2.9l1.6-2.9H49l-2.9,4.7L49.2,156.7z"
				/>
		</g>
		<path fill="#56B1D9" d="M30.1,131.8"/>
	</g>
	<g>
		<path fill="#9BCEE0" d="M55.1,132.8c2.2,0,4,1.8,4,4v30c0,2.2-1.8,4-4,4h-50c-2.2,0-4-1.8-4-4v-30c0-2.2,1.8-4,4-4H55.1
			 M55.1,131.8h-50c-2.8,0-5,2.2-5,5v30c0,2.8,2.2,5,5,5h50c2.8,0,5-2.2,5-5v-30C60.1,134,57.9,131.8,55.1,131.8L55.1,131.8z"/>
	</g>
</g>
</svg>
