<?xml version="1.0" encoding="utf-8"?>
<!-- Generator: Adobe Illustrator 17.1.0, SVG Export Plug-In . SVG Version: 6.00 Build 0)  -->
<!DOCTYPE svg PUBLIC "-//W3C//DTD SVG 1.1//EN" "http://www.w3.org/Graphics/SVG/1.1/DTD/svg11.dtd">
<svg version="1.1" id="Layer_1" xmlns="http://www.w3.org/2000/svg" xmlns:xlink="http://www.w3.org/1999/xlink" x="0px" y="0px"
	 viewBox="0.4 43.8 60 40" enable-background="new 0.4 43.8 60 40" xml:space="preserve">
<g>
	<path fill="#F3F4F4" d="M60.4,78.8c0,2.8-2.2,5-5,5h-50c-2.8,0-5-2.2-5-5v-30c0-2.8,2.2-5,5-5h50c2.8,0,5,2.2,5,5V78.8z"/>
	<path fill="#5565AF" d="M1.4,53.8v-5c0-2.8,2.2-5,5-5h48c2.8,0,5,2.2,5,5v5"/>
	<path fill="#E6A124" d="M59.4,73.8v5c0,2.8-2.2,4-5,4h-48c-2.8,0-5-1.2-5-4v-5"/>
	<g>
		<path fill="#5565AF" d="M17.8,67.2c0.4-1.1,0.7-1.9,0.9-2.2l3.4-6.9h2.5l-5.8,11.4H16l-1-11.4h2.3l0.4,6.9c0,0.2,0,0.6,0,1
			C17.7,66.5,17.7,66.9,17.8,67.2L17.8,67.2z"/>
		<path fill="#5565AF" d="M23.4,69.5l2.4-11.4h2.4l-2.4,11.4H23.4z"/>
		<path fill="#5565AF" d="M35.6,66.1c0,1.1-0.4,1.9-1.2,2.6c-0.8,0.6-1.8,0.9-3.1,0.9c-1.2,0-2.1-0.2-2.8-0.7v-2.1
			c1,0.6,1.9,0.8,2.8,0.8c0.6,0,1-0.1,1.4-0.3c0.3-0.2,0.5-0.5,0.5-0.9c0-0.2,0-0.4-0.1-0.6c-0.1-0.2-0.2-0.3-0.3-0.5
			c-0.1-0.1-0.5-0.4-1-0.8c-0.7-0.5-1.2-1-1.5-1.5c-0.3-0.5-0.4-1-0.4-1.6c0-0.7,0.2-1.3,0.5-1.8c0.3-0.5,0.8-0.9,1.4-1.2
			c0.6-0.3,1.3-0.4,2.1-0.4c1.1,0,2.2,0.3,3.1,0.8L36,60.5c-0.8-0.4-1.6-0.6-2.2-0.6c-0.4,0-0.8,0.1-1.1,0.4
			c-0.3,0.2-0.4,0.5-0.4,0.9c0,0.3,0.1,0.6,0.3,0.8c0.2,0.2,0.6,0.6,1.2,0.9c0.6,0.4,1.1,0.9,1.4,1.4C35.4,64.9,35.6,65.5,35.6,66.1
			z"/>
		<path fill="#5565AF" d="M43.2,66.8h-3.7l-1.3,2.7h-2.5l6-11.5h2.9l1.1,11.5h-2.3L43.2,66.8z M43.1,64.8L42.9,62
			c-0.1-0.7-0.1-1.3-0.1-2v-0.3c-0.2,0.6-0.5,1.3-0.9,2l-1.5,3H43.1z"/>
	</g>
	<path fill="#FFFFFF" d="M30.4,43.8"/>
	<path opacity="4.000000e-02" fill="#FFFFFF" enable-background="new    " d="M58.9,45.3c0.9,0.9,1.5,2.2,1.5,3.5v15v15
		c0,1.4-0.6,2.6-1.5,3.5s-2.2,1.5-3.5,1.5h-25h-25c-1.4,0-2.6-0.6-3.5-1.5L58.9,45.3z"/>
	<g>
		<path fill="#F8F8F9" d="M55.4,44.8c2.2,0,4,1.8,4,4v30c0,2.2-1.8,4-4,4h-50c-2.2,0-4-1.8-4-4v-30c0-2.2,1.8-4,4-4H55.4 M55.4,43.8
			h-50c-2.8,0-5,2.2-5,5v30c0,2.8,2.2,5,5,5h50c2.8,0,5-2.2,5-5v-30C60.4,46,58.1,43.8,55.4,43.8L55.4,43.8z"/>
	</g>
</g>
</svg>
